
<svg xmlns="http://www.w3.org/2000/svg" viewBox="0 0 200 100">
  <g>
    <path d="M100,20 C85,20 70,35 70,50 C70,65 85,80 100,80 C115,80 130,65 130,50 C130,35 115,20 100,20 Z" fill="none" stroke="#0076bf" stroke-width="3"/>
    <path d="M100,20 C95,30 95,40 100,50 C105,40 105,30 100,20 Z" fill="#F7931E"/>
    <path d="M100,80 C95,70 95,60 100,50 C105,60 105,70 100,80 Z" fill="#8DC63F"/>
    <path d="M100,50 L100,90" stroke="#0076bf" stroke-width="3"/>
  </g>
  <text x="140" y="50" font-family="Arial" font-size="24" font-weight="bold" fill="#333">WELLATSEA</text>
</svg>
